<svg width="20" height="20" viewBox="0 0 20 20" fill="none" xmlns="http://www.w3.org/2000/svg"><path d="M10.012 1.62769C9.55204 1.62769 9.17871 2.00102 9.17871 2.46102V4.12769C9.17871 4.58769 9.55204 4.96102 10.012 4.96102C10.472 4.96102 10.8454 4.58769 10.8454 4.12769V2.46102C10.8454 2.00102 10.472 1.62769 10.012 1.62769ZM4.69954 3.81519C4.48621 3.81519 4.28955 3.91269 4.12705 4.07602C3.80121 4.40102 3.80121 4.92268 4.12705 5.24768L5.24622 6.39352C5.57205 6.71852 6.11954 6.71935 6.44454 6.39352C6.76954 6.06768 6.77037 5.52019 6.44454 5.19519L5.29871 4.07602C5.13537 3.91269 4.91288 3.81519 4.69954 3.81519ZM15.2987 3.84103C15.0854 3.84103 14.8887 3.91269 14.7254 4.07602L13.5795 5.19519C13.2545 5.52103 13.2545 6.06768 13.5795 6.39352C13.9054 6.71852 14.452 6.71852 14.7779 6.39352L15.897 5.24768C16.2229 4.92185 16.2229 4.40102 15.897 4.07602C15.7345 3.91269 15.512 3.84103 15.2987 3.84103ZM10.012 5.79436C7.71121 5.79436 5.84538 7.66019 5.84538 9.96103C5.84538 12.2619 7.71121 14.1277 10.012 14.1277C12.3129 14.1277 14.1787 12.2619 14.1787 9.96103C14.1787 7.66019 12.3129 5.79436 10.012 5.79436ZM2.51204 9.12769C2.05204 9.12769 1.67871 9.50102 1.67871 9.96103C1.67871 10.421 2.05204 10.7944 2.51204 10.7944H4.17871C4.63871 10.7944 5.01204 10.421 5.01204 9.96103C5.01204 9.50102 4.63871 9.12769 4.17871 9.12769H2.51204ZM15.8454 9.12769C15.3854 9.12769 15.012 9.50102 15.012 9.96103C15.012 10.421 15.3854 10.7944 15.8454 10.7944H17.512C17.972 10.7944 18.3454 10.421 18.3454 9.96103C18.3454 9.50102 17.972 9.12769 17.512 9.12769H15.8454ZM5.84538 13.2944C5.63204 13.2935 5.40955 13.366 5.24622 13.5285L4.10038 14.6744C3.77455 14.9994 3.77622 15.5202 4.10038 15.846C4.42538 16.1727 4.97204 16.171 5.29871 15.846L6.44454 14.7269C6.77037 14.4019 6.76871 13.8552 6.44454 13.5285C6.28204 13.366 6.05871 13.2952 5.84538 13.2944ZM14.1787 13.2944C13.9654 13.2944 13.742 13.366 13.5795 13.5285C13.2545 13.8544 13.2537 14.4019 13.5795 14.7269L14.752 15.8727C15.077 16.1977 15.5987 16.1985 15.9237 15.8727C16.2487 15.5469 16.2495 14.9994 15.9237 14.6744L14.7779 13.5285C14.6145 13.366 14.392 13.2944 14.1787 13.2944ZM10.012 14.961C9.55204 14.961 9.17871 15.3344 9.17871 15.7944V17.461C9.17871 17.921 9.55204 18.2944 10.012 18.2944C10.472 18.2944 10.8454 17.921 10.8454 17.461V15.7944C10.8454 15.3344 10.472 14.961 10.012 14.961Z" fill="#ffffff"></path></svg>