<svg xmlns="http://www.w3.org/2000/svg" width="24" height="25" viewBox="0 0 24 25" fill="none"><path fillRule="evenodd" clipRule="evenodd" d="M16.1162 3.33859H16.1183C16.0293 2.8301 16.0693 2.5 16.0693 2.5H12.5046V15.7999C12.5046 16.2599 12.5047 16.7055 12.3441 17.1482C12.0843 17.8663 11.5288 18.5144 10.79 18.802C9.81324 19.1818 9.0246 19.19 8.1438 18.7355L8.14142 18.7324C8.02238 18.671 7.90105 18.6007 7.77742 18.5215C6.71771 17.8012 6.52452 16.7213 6.52969 15.9582C6.6536 14.9212 7.07439 14.3406 7.86735 13.7454C9.0015 12.941 10.4188 13.3953 10.4188 13.3953V10.6904L10.4209 10.6904V9.91934C9.75566 9.82642 9.07939 9.83612 8.41724 9.94809C7.97788 10.0248 7.5483 10.147 7.13595 10.3128C6.47485 10.5599 5.86092 10.912 5.31941 11.3548C4.70534 11.8687 4.18822 12.4822 3.79115 13.1678C3.64099 13.4187 3.07306 14.4203 3.00378 16.052C2.96377 16.9781 3.25118 17.9334 3.388 18.3306V18.3385C3.39305 18.352 3.39893 18.3673 3.40562 18.3844C3.51547 18.6642 3.84406 19.4056 4.35779 20.0386C4.79796 20.5774 5.3182 21.0499 5.90155 21.4407C5.71948 21.2625 5.5481 21.0744 5.38825 20.8772C4.83796 20.197 4.50193 19.3951 4.41588 19.1684L4.41584 19.1657C4.5013 19.3961 4.83841 20.1964 5.38779 20.8734C5.54764 21.0706 5.71902 21.2587 5.90108 21.4369L5.90969 21.4432C7.63415 22.5756 9.54964 22.4989 9.54964 22.4989C9.57717 22.4977 9.61005 22.4967 9.64793 22.4955C10.0664 22.4827 11.0944 22.4511 12.2516 21.9229C13.6517 21.2844 14.4459 20.3362 14.4459 20.3362C14.4519 20.329 14.4593 20.3204 14.4679 20.3105C14.4735 20.304 14.4796 20.2969 14.4863 20.2892C14.6725 20.0741 15.2537 19.4028 15.6416 18.4223C15.9656 17.6058 16.0719 16.6259 16.0719 16.2337V9.18907C16.1183 9.21491 16.6927 9.57961 16.6927 9.57961C16.6927 9.57961 17.5253 10.091 18.8199 10.4244C19.7475 10.6628 21 10.7124 21 10.7124V8.04039L21 7.30144C20.5598 7.34604 19.6671 7.21517 18.7605 6.7767C18.6195 6.70839 18.4827 6.63213 18.3509 6.5483C18.4645 6.66709 19.0453 7.25435 19.791 7.61487C20.1656 7.79613 20.5599 7.93624 20.9666 8.03262C20.5592 7.93638 20.1642 7.79626 19.7888 7.61485C19.0432 7.25432 18.4624 6.66706 18.3488 6.54828C17.9642 6.30381 17.6116 6.01524 17.2985 5.68885C16.5181 4.82444 16.2229 3.95169 16.1162 3.33859ZM9.89347 19.8451C9.54146 19.7603 9.18704 19.6007 8.81045 19.3597C8.66772 19.2645 8.53454 19.1569 8.41249 19.0386C8.53387 19.1568 8.66632 19.2643 8.80831 19.3596C9.18572 19.6011 9.54082 19.7607 9.89347 19.8451Z" fill="#5c5c5c"></path><path d="M3.44968 18.5051L3.40658 18.387C3.42291 18.433 3.43589 18.4679 3.44418 18.4903L3.44968 18.5051Z" fill="#5c5c5c"></path></svg>