<svg xmlns="http://www.w3.org/2000/svg" width="20" height="21" viewBox="0 0 20 21" fill="none"><path d="M18.3172 10.0083C18.0339 5.17496 13.6422 1.44997 8.5839 2.2833C5.10056 2.8583 2.3089 5.68328 1.76724 9.16662C1.45057 11.1833 1.86725 13.0916 2.77559 14.6666L2.03391 17.425C1.86724 18.05 2.44223 18.6166 3.05889 18.4416L5.77557 17.6916C7.0089 18.4166 8.45057 18.8333 9.99223 18.8333C14.6922 18.8333 18.5922 14.6916 18.3172 10.0083ZM14.0672 13.6C13.9922 13.75 13.9006 13.8916 13.7839 14.025C13.5756 14.25 13.3505 14.4166 13.1005 14.5166C12.8505 14.625 12.5756 14.675 12.2839 14.675C11.8589 14.675 11.4006 14.575 10.9256 14.3666C10.4422 14.1583 9.96725 13.8833 9.49225 13.5416C9.00892 13.1916 8.55891 12.8 8.12557 12.375C7.69224 11.9416 7.30889 11.4833 6.95889 11.0083C6.61722 10.5333 6.34224 10.0583 6.14224 9.58328C5.94224 9.10828 5.84225 8.64996 5.84225 8.21663C5.84225 7.9333 5.89224 7.6583 5.99224 7.4083C6.09224 7.14996 6.25059 6.91663 6.47559 6.7083C6.74226 6.44163 7.0339 6.31663 7.34224 6.31663C7.4589 6.31663 7.57555 6.34163 7.68388 6.39163C7.79222 6.44163 7.89224 6.51663 7.96724 6.62496L8.93388 7.99161C9.00888 8.09995 9.06723 8.19162 9.10056 8.28329C9.14223 8.37495 9.1589 8.45828 9.1589 8.54162C9.1589 8.64162 9.12558 8.74163 9.06724 8.84163C9.00891 8.94163 8.93389 9.04162 8.83389 9.14162L8.51722 9.47495C8.46722 9.52495 8.45059 9.57496 8.45059 9.64162C8.45059 9.67496 8.45888 9.70829 8.46722 9.74162C8.48388 9.77495 8.49225 9.79996 8.50058 9.82496C8.57558 9.96662 8.70889 10.1416 8.89223 10.3583C9.08389 10.5749 9.28393 10.8 9.50059 11.0166C9.72559 11.2416 9.94225 11.4416 10.1672 11.6333C10.3839 11.8166 10.5672 11.9416 10.7089 12.0166C10.7339 12.025 10.7589 12.0416 10.7839 12.0499C10.8172 12.0666 10.8506 12.0666 10.8922 12.0666C10.9672 12.0666 11.0173 12.0416 11.0673 11.9916L11.3839 11.675C11.4922 11.5666 11.5923 11.4916 11.6839 11.4416C11.7839 11.3833 11.8756 11.3499 11.9839 11.3499C12.0672 11.3499 12.1506 11.3666 12.2422 11.4083C12.3339 11.45 12.4339 11.5 12.5339 11.575L13.9172 12.5583C14.0256 12.6333 14.1006 12.725 14.1506 12.825C14.1922 12.9333 14.2172 13.0333 14.2172 13.15C14.1672 13.2916 14.1339 13.45 14.0672 13.6Z" fill="#5c5c5c"></path></svg>